<svg width="390" height="800" viewBox="0 0 390 800" fill="none" xmlns="http://www.w3.org/2000/svg">
<g opacity="0.08" clip-path="url(#clip0_2390_99162)">
<rect width="39" height="39" fill="black" fill-opacity="0.394803"/>
<rect x="39" width="39" height="39" fill="#07B979" fill-opacity="0.501689"/>
<rect x="78" width="39" height="39" fill="#07B979" fill-opacity="0.862476"/>
<rect x="195" width="39" height="39" fill="black" fill-opacity="0.430622"/>
<rect x="234" width="39" height="39" fill="#07B979" fill-opacity="0.853323"/>
<rect x="312" width="39" height="39" fill="#07B979" fill-opacity="0.793158"/>
<rect y="39" width="39" height="39" fill="#07B979" fill-opacity="0.786426"/>
<rect y="39" width="39" height="39" fill="#07B979" fill-opacity="0.786426"/>
<rect x="78" y="39" width="39" height="39" fill="#07B979" fill-opacity="0.640446"/>
<rect x="156" y="39" width="39" height="39" fill="#07B979" fill-opacity="0.717907"/>
<rect x="234" y="39" width="39" height="39" fill="#07B979" fill-opacity="0.562844"/>
<rect x="273" y="39" width="39" height="39" fill="black" fill-opacity="0.374795"/>
<rect x="351" y="39" width="39" height="39" fill="#07B979" fill-opacity="0.682799"/>
<rect y="78" width="39" height="39" fill="#07B979" fill-opacity="0.881473"/>
<rect x="78" y="78" width="39" height="39" fill="#07B979" fill-opacity="0.68467"/>
<rect x="117" y="78" width="39" height="39" fill="black" fill-opacity="0.233558"/>
<rect x="156" y="78" width="39" height="39" fill="black" fill-opacity="0.319893"/>
<rect x="234" y="78" width="39" height="39" fill="#07B979" fill-opacity="0.682116"/>
<rect x="273" y="78" width="39" height="39" fill="black" fill-opacity="0.210466"/>
<rect x="312" y="78" width="39" height="39" fill="#07B979" fill-opacity="0.970415"/>
<rect x="351" y="78" width="39" height="39" fill="#07B979" fill-opacity="0.852217"/>
<rect x="39" y="117" width="39" height="39" fill="#07B979" fill-opacity="0.812075"/>
<rect x="78" y="117" width="39" height="39" fill="black" fill-opacity="0.395067"/>
<rect x="156" y="117" width="39" height="39" fill="black" fill-opacity="0.299752"/>
<rect x="195" y="117" width="39" height="39" fill="#07B979" fill-opacity="0.737471"/>
<rect x="234" y="117" width="39" height="39" fill="black" fill-opacity="0.435681"/>
<rect x="78" y="156" width="39" height="39" fill="#07B979" fill-opacity="0.493044"/>
<rect x="156" y="156" width="39" height="39" fill="#07B979" fill-opacity="0.778418"/>
<rect x="195" y="156" width="39" height="39" fill="black" fill-opacity="0.274921"/>
<rect x="273" y="156" width="39" height="39" fill="#07B979" fill-opacity="0.575492"/>
<rect x="39" y="195" width="39" height="39" fill="#07B979" fill-opacity="0.619875"/>
<rect x="117" y="195" width="39" height="39" fill="#07B979" fill-opacity="0.89929"/>
<rect x="117" y="234" width="39" height="39" fill="#07B979" fill-opacity="0.549316"/>
<rect x="156" y="234" width="39" height="39" fill="black" fill-opacity="0.353125"/>
<rect x="78" y="273" width="39" height="39" fill="#07B979" fill-opacity="0.681031"/>
<rect x="117" y="273" width="39" height="39" fill="#07B979" fill-opacity="0.793481"/>
<rect x="156" y="273" width="39" height="39" fill="#07B979" fill-opacity="0.85166"/>
<rect x="234" y="273" width="39" height="39" fill="#07B979" fill-opacity="0.646791"/>
<rect x="39" y="312" width="39" height="39" fill="#07B979" fill-opacity="0.980348"/>
<rect x="78" y="312" width="39" height="39" fill="#07B979" fill-opacity="0.969244"/>
<rect x="117" y="312" width="39" height="39" fill="black" fill-opacity="0.404727"/>
<rect x="273" y="312" width="39" height="39" fill="#07B979" fill-opacity="0.486989"/>
<rect x="78" y="351" width="39" height="39" fill="#07B979" fill-opacity="0.942924"/>
<rect x="39" y="429" width="39" height="39" fill="black" fill-opacity="0.379342"/>
<rect x="195" y="429" width="39" height="39" fill="black" fill-opacity="0.343786"/>
<rect x="78" y="468" width="39" height="39" fill="#07B979" fill-opacity="0.528232"/>
<rect x="156" y="468" width="39" height="39" fill="black" fill-opacity="0.409804"/>
<rect x="351" y="468" width="39" height="39" fill="black" fill-opacity="0.298511"/>
<rect y="507" width="39" height="39" fill="#07B979" fill-opacity="0.526426"/>
<rect x="156" y="507" width="39" height="39" fill="black" fill-opacity="0.295064"/>
<rect x="312" y="507" width="39" height="39" fill="black" fill-opacity="0.379123"/>
<rect x="78" y="546" width="39" height="39" fill="#07B979" fill-opacity="0.553952"/>
<rect x="117" y="546" width="39" height="39" fill="#07B979" fill-opacity="0.857579"/>
<rect x="234" y="546" width="39" height="39" fill="#07B979" fill-opacity="0.477617"/>
<rect x="39" y="624" width="39" height="39" fill="black" fill-opacity="0.256168"/>
<rect x="117" y="624" width="39" height="39" fill="#07B979" fill-opacity="0.8868"/>
<rect x="200" y="624" width="39" height="39" fill="#07B979" fill-opacity="0.793342"/>
<rect x="156" y="702" width="39" height="39" fill="#07B979" fill-opacity="0.581289"/>
</g>
<defs>
<clipPath id="clip0_2390_99162">
<rect width="390" height="800" fill="white"/>
</clipPath>
</defs>
</svg>
